<svg width="44" height="44" viewBox="0 0 44 44" fill="none" xmlns="http://www.w3.org/2000/svg">
<circle cx="22" cy="22" r="21.25" stroke="#FF3B30" stroke-width="1.5"/>
<path fill-rule="evenodd" clip-rule="evenodd" d="M21.4565 7.40216V11.4348H15.8507C14.4923 11.4348 13.3911 12.536 13.3911 13.8944V21.5L13.3911 22.913V29.5348C13.3911 31.4366 14.9328 32.9783 16.8346 32.9783H21.4565V36.5978C21.4565 37.012 21.7923 37.3478 22.2065 37.3478C22.6208 37.3478 22.9565 37.012 22.9565 36.5978V32.9783H24.8694C28.039 32.9783 30.6085 30.4088 30.6085 27.2391C30.6085 25.0703 29.4055 23.1825 27.6303 22.2065C29.4055 21.2306 30.6085 19.3427 30.6085 17.1739C30.6085 14.0043 28.039 11.4348 24.8694 11.4348H22.9565V7.40216C22.9565 6.98795 22.6208 6.65216 22.2065 6.65216C21.7923 6.65216 21.4565 6.98795 21.4565 7.40216ZM15.8507 12.9348H24.8694C27.2106 12.9348 29.1085 14.8327 29.1085 17.1739C29.1085 19.5151 27.2106 21.413 24.8694 21.413H14.8911V13.8944C14.8911 13.3644 15.3208 12.9348 15.8507 12.9348ZM14.8911 23H24.8694C27.2106 23 29.1085 24.8979 29.1085 27.2391C29.1085 29.5803 27.2106 31.4783 24.8694 31.4783H16.8346C15.7612 31.4783 14.8911 30.6081 14.8911 29.5348L14.8911 23Z" fill="#FF3B30"/>
</svg>
