<svg width="23" height="23" viewBox="0 0 23 23" fill="none" xmlns="http://www.w3.org/2000/svg">
<path d="M1.79688 1.69687H1.69687V1.79688V4.3125C1.69687 4.75352 1.33946 5.11094 0.898438 5.11094C0.45742 5.11094 0.1 4.75352 0.1 4.3125V0.898438C0.1 0.45742 0.45742 0.1 0.898438 0.1H4.3125C4.75352 0.1 5.11094 0.45742 5.11094 0.898438C5.11094 1.33946 4.75352 1.69687 4.3125 1.69687H1.79688ZM21.3031 1.79688V1.69687H21.2031H18.6875C18.2465 1.69687 17.8891 1.33946 17.8891 0.898438C17.8891 0.45742 18.2465 0.1 18.6875 0.1H22.1016C22.5426 0.1 22.9 0.45742 22.9 0.898438V4.3125C22.9 4.75352 22.5426 5.11094 22.1016 5.11094C21.6605 5.11094 21.3031 4.75352 21.3031 4.3125V1.79688ZM1.69687 21.2031V21.3031H1.79688H4.3125C4.75352 21.3031 5.11094 21.6605 5.11094 22.1016C5.11094 22.5426 4.75352 22.9 4.3125 22.9H0.898438C0.45742 22.9 0.1 22.5426 0.1 22.1016V18.6875C0.1 18.2465 0.45742 17.8891 0.898438 17.8891C1.33946 17.8891 1.69687 18.2465 1.69687 18.6875V21.2031ZM21.2031 21.3031H21.3031V21.2031V18.6875C21.3031 18.2465 21.6605 17.8891 22.1016 17.8891C22.5426 17.8891 22.9 18.2465 22.9 18.6875V22.1016C22.9 22.5426 22.5426 22.9 22.1016 22.9H18.6875C18.2465 22.9 17.8891 22.5426 17.8891 22.1016C17.8891 21.6605 18.2465 21.3031 18.6875 21.3031H21.2031ZM9.01699 5.32324V5.22324H8.91699H5.32324H5.22324V5.32324V8.91699V9.01699H5.32324H8.91699H9.01699V8.91699V5.32324ZM18.226 5.32324V5.22324H18.126H14.5322H14.4322V5.32324V8.91699V9.01699H14.5322H18.126H18.226V8.91699V5.32324ZM9.01699 14.5322V14.4322H8.91699H5.32324H5.22324V14.5322V18.126V18.226H5.32324H8.91699H9.01699V18.126V14.5322ZM17.0692 15.689V15.589H16.9692H15.689H15.589V15.689V16.9692V17.0692H15.689H16.9692H17.0692V16.9692V15.689ZM10.6139 4.4248V9.81543C10.6139 10.2564 10.2564 10.6139 9.81543 10.6139H4.4248C3.98379 10.6139 3.62637 10.2564 3.62637 9.81543V4.4248C3.62637 3.98379 3.98379 3.62637 4.4248 3.62637H9.81543C10.2564 3.62637 10.6139 3.98379 10.6139 4.4248ZM19.0244 10.6139H13.6338C13.1928 10.6139 12.8354 10.2564 12.8354 9.81543V4.4248C12.8354 3.98379 13.1928 3.62637 13.6338 3.62637H19.0244C19.4654 3.62637 19.8229 3.98379 19.8229 4.4248V9.81543C19.8229 10.2564 19.4654 10.6139 19.0244 10.6139ZM10.6139 13.6338V19.0244C10.6139 19.4654 10.2564 19.8229 9.81543 19.8229H4.4248C3.98379 19.8229 3.62637 19.4654 3.62637 19.0244V13.6338C3.62637 13.1928 3.98379 12.8354 4.4248 12.8354H9.81543C10.2564 12.8354 10.6139 13.1928 10.6139 13.6338ZM17.8677 18.6661H14.7905C14.3495 18.6661 13.9921 18.3087 13.9921 17.8677V14.7905C13.9921 14.3495 14.3495 13.9921 14.7905 13.9921H17.8677C18.3087 13.9921 18.6661 14.3495 18.6661 14.7905V17.8677C18.6661 18.3087 18.3087 18.6661 17.8677 18.6661Z" fill="#FA4B41" stroke="white" stroke-width="0.2"/>
</svg>
