<svg width="23" height="23" viewBox="0 0 23 23" fill="none" xmlns="http://www.w3.org/2000/svg">
<path fill-rule="evenodd" clip-rule="evenodd" d="M22.775 1.2968C23.0732 1.00014 23.0732 0.519158 22.775 0.222496C22.4768 -0.0741654 21.9933 -0.0741654 21.6951 0.222496L11.4414 10.4229L1.30868 0.342826C1.0093 0.0450031 0.523911 0.0450032 0.224533 0.342826C-0.0748444 0.640649 -0.0748444 1.12352 0.224533 1.42134L10.3573 11.5014L0.311988 21.4945C0.0137779 21.7912 0.0137774 22.2722 0.311988 22.5688C0.610198 22.8655 1.09369 22.8655 1.3919 22.5688L11.4372 12.5757L21.6913 22.7766C21.9907 23.0745 22.4761 23.0745 22.7755 22.7766C23.0748 22.4788 23.0748 21.996 22.7755 21.6981L12.5213 11.4972L22.775 1.2968Z" fill="#333333"/>
</svg>
