<svg width="44" height="44" viewBox="0 0 44 44" fill="none" xmlns="http://www.w3.org/2000/svg">
<circle cx="22" cy="22" r="21.25" stroke="#FF3B30" stroke-width="1.5"/>
<path fill-rule="evenodd" clip-rule="evenodd" d="M21.6807 8.25003C21.9253 8.25238 22.1534 8.37389 22.2918 8.5756L30.6184 20.708C30.7897 20.9576 30.7941 21.2857 30.6297 21.5398L22.3031 34.4075C22.1663 34.6189 21.9324 34.7476 21.6805 34.75C21.4286 34.7523 21.1924 34.6281 21.0516 34.4192L12.3781 21.5516C12.2031 21.2919 12.2078 20.9509 12.3899 20.6962L21.0633 8.56382C21.2056 8.3648 21.436 8.24769 21.6807 8.25003ZM14.7897 22.4457L21.4601 24.4249C21.6021 24.467 21.7534 24.4662 21.8949 24.4224L28.2484 22.4587L21.6607 32.6392L14.7897 22.4457ZM28.8051 20.7167L21.669 22.9222L14.222 20.7126L21.6609 10.3071L28.8051 20.7167Z" fill="#FF3B30"/>
</svg>
