<svg width="34" height="23" viewBox="0 0 34 23" fill="none" xmlns="http://www.w3.org/2000/svg">
<path d="M34 12.191C31.4474 9.34655 28.3975 6.99137 25 5.24098L27 3.24098C27.1374 3.10079 27.2144 2.9123 27.2144 2.71598C27.2144 2.51967 27.1374 2.33118 27 2.19098C26.8625 2.06799 26.6845 2 26.5 2C26.3155 2 26.1375 2.06799 26 2.19098L23.56 4.57098C21.7899 3.83441 19.9123 3.38867 18 3.25098C17.3358 3.16938 16.6642 3.16938 16 3.25098C7.08 3.85098 0 12.191 0 12.191C2.5483 15.0533 5.59844 17.4257 9 19.191L7 21.191C6.87701 21.3285 6.80902 21.5065 6.80902 21.691C6.80902 21.8755 6.87701 22.0535 7 22.191C7.13751 22.314 7.31552 22.382 7.5 22.382C7.68448 22.382 7.86249 22.314 8 22.191L10.41 19.781C12.1878 20.531 14.0758 20.9869 16 21.131C16.6642 21.2126 17.3358 21.2126 18 21.131C26.92 20.531 34 12.191 34 12.191ZM17 19.691C15.2704 19.6925 13.5944 19.0914 12.26 17.991L14.05 16.191C14.898 16.837 15.934 17.1881 17 17.191C18.3261 17.191 19.5979 16.6642 20.5355 15.7265C21.4732 14.7888 22 13.5171 22 12.191C21.9971 11.1249 21.646 10.089 21 9.24098L22.8 7.45098C23.7001 8.54843 24.2699 9.87907 24.443 11.2879C24.616 12.6967 24.3852 14.1256 23.7774 15.4083C23.1696 16.691 22.2098 17.7745 21.0099 18.5328C19.81 19.291 18.4194 19.6927 17 19.691V19.691ZM13.5 12.191C13.5 11.2627 13.8687 10.3725 14.5251 9.71611C15.1815 9.05973 16.0717 8.69098 17 8.69098C17.6676 8.69238 18.3205 8.88686 18.88 9.25098L14.06 14.071C13.6959 13.5115 13.5014 12.8586 13.5 12.191V12.191ZM20.5 12.191C20.5 13.1192 20.1313 14.0095 19.4749 14.6659C18.8185 15.3222 17.9283 15.691 17 15.691C16.3324 15.6896 15.6795 15.4951 15.12 15.131L19.94 10.311C20.3041 10.8705 20.4986 11.5234 20.5 12.191ZM20 8.19098C19.1384 7.53458 18.0832 7.18285 17 7.19098C15.6739 7.19098 14.4021 7.71777 13.4645 8.65545C12.5268 9.59313 12 10.8649 12 12.191C11.9919 13.2741 12.3436 14.3293 13 15.191L11.2 16.931C10.0236 15.4934 9.42329 13.67 9.51573 11.8147C9.60817 9.95944 10.3867 8.20471 11.7002 6.8912C13.0137 5.5777 14.7685 4.79915 16.6237 4.70671C18.479 4.61428 20.3024 5.21455 21.74 6.39098L20 8.19098ZM2.05 12.191C4.40653 9.79601 7.15211 7.81797 10.17 6.34098C8.78626 7.96835 8.02646 10.0348 8.02646 12.171C8.02646 14.3071 8.78626 16.3736 10.17 18.001V18.001C7.15585 16.5348 4.41066 14.5705 2.05 12.191V12.191ZM23.83 18.041C25.2137 16.4136 25.9735 14.3471 25.9735 12.211C25.9735 10.0748 25.2137 8.00835 23.83 6.38098V6.38098C26.8619 7.84238 29.6243 9.80684 32 12.191C29.6284 14.5906 26.8656 16.5688 23.83 18.041V18.041Z" fill="#909090"/>
</svg>
