<svg width="34" height="18" viewBox="0 0 34 18" fill="none" xmlns="http://www.w3.org/2000/svg">
<g clip-path="url(#clip0)">
<path fill-rule="evenodd" clip-rule="evenodd" d="M18 0.061204C26.92 0.661204 34 9.0012 34 9.0012C34 9.0012 26.92 17.3412 18 17.9412C17.3358 18.0228 16.6642 18.0228 16 17.9412C7.08 17.3412 0 9.0012 0 9.0012C0 9.0012 7.08 0.661204 16 0.061204C16.6642 -0.0204013 17.3358 -0.0204013 18 0.061204ZM23.236 13.168C24.0601 11.9346 24.5 10.4846 24.5 9.0012C24.5 7.01208 23.7098 5.10443 22.3033 3.6979C20.8968 2.29138 18.9891 1.5012 17 1.5012C15.5166 1.5012 14.0666 1.94107 12.8332 2.76518C11.5999 3.58929 10.6386 4.76063 10.0709 6.13108C9.50325 7.50152 9.35472 9.00952 9.64411 10.4644C9.9335 11.9192 10.6478 13.2556 11.6967 14.3045C12.7456 15.3534 14.082 16.0677 15.5368 16.3571C16.9917 16.6465 18.4997 16.498 19.8701 15.9303C21.2406 15.3626 22.4119 14.4014 23.236 13.168ZM8.00941 9.0012C8.00941 6.85603 8.77564 4.7814 10.17 3.1512C7.15211 4.62819 4.40653 6.60623 2.05 9.0012C4.40653 11.3962 7.15211 13.3742 10.17 14.8512C8.77564 13.221 8.00941 11.1464 8.00941 9.0012ZM25.9906 9.0012C25.9906 11.1464 25.2244 13.221 23.83 14.8512C26.8656 13.3791 29.6284 11.4008 32 9.0012C29.6284 6.60162 26.8656 4.62335 23.83 3.1512C25.2244 4.7814 25.9906 6.85603 25.9906 9.0012ZM19.7779 13.1586C18.9556 13.708 17.9889 14.0012 17 14.0012C15.6739 14.0012 14.4021 13.4744 13.4645 12.5368C12.5268 11.5991 12 10.3273 12 9.00122C12 8.01232 12.2932 7.04562 12.8427 6.22337C13.3921 5.40113 14.173 4.76026 15.0866 4.38183C16.0002 4.00339 17.0055 3.90437 17.9755 4.0973C18.9454 4.29022 19.8363 4.76643 20.5355 5.46569C21.2348 6.16495 21.711 7.05587 21.9039 8.02577C22.0969 8.99568 21.9978 10.001 21.6194 10.9146C21.241 11.8283 20.6001 12.6092 19.7779 13.1586ZM18.9445 6.09108C18.3689 5.70649 17.6922 5.50122 17 5.50122C16.0717 5.50122 15.1815 5.86997 14.5251 6.52635C13.8687 7.18273 13.5 8.07297 13.5 9.00122C13.5 9.69346 13.7053 10.3701 14.0899 10.9457C14.4744 11.5213 15.0211 11.9699 15.6606 12.2348C16.3001 12.4997 17.0039 12.569 17.6828 12.434C18.3617 12.2989 18.9854 11.9656 19.4749 11.4761C19.9644 10.9866 20.2977 10.363 20.4327 9.68404C20.5678 9.00511 20.4985 8.30137 20.2336 7.66183C19.9687 7.02229 19.5201 6.47566 18.9445 6.09108Z" fill="#FF3B30"/>
</g>
<defs>
<clipPath id="clip0">
<rect width="34" height="18" fill="white"/>
</clipPath>
</defs>
</svg>
