<svg width="70" height="70" viewBox="0 0 70 70" fill="none" xmlns="http://www.w3.org/2000/svg">
<g clip-path="url(#clip0)">
<path d="M60.3639 18.4048L69.3983 9.38138C69.9854 8.79499 70.1613 7.91275 69.844 7.14617C69.5267 6.37945 68.7787 5.87947 67.9491 5.87947H63.8475V2.05135C63.8475 1.21587 63.3407 0.463914 62.5663 0.150418C61.7916 -0.163077 60.9047 0.0245006 60.3235 0.624695L51.5735 9.66042C51.2031 10.043 50.996 10.5546 50.996 11.0871V15.8374C45.4124 11.0045 38.3293 8.36693 30.8166 8.36693C13.7097 8.36706 0 22.0714 0 39.1838C0 56.2907 13.7042 70.0004 30.8166 70.0004C47.9235 70.0004 61.6334 56.2962 61.6334 39.1838C61.6334 31.6711 58.9958 24.5882 54.1629 19.0044H58.9146C59.4582 19.0044 59.9795 18.7888 60.3639 18.4048ZM49.7367 58.1037C44.7098 63.1305 37.9905 65.8989 30.8166 65.8989C15.9766 65.8989 4.10155 54.0291 4.10155 39.1838C4.10155 24.1437 16.2189 12.4395 30.8166 12.4395C37.0279 12.4395 43.2393 14.5828 48.2321 18.8694L45.3205 21.7809C41.2744 18.4056 36.1977 16.5668 30.8166 16.5668C18.2473 16.5668 8.19969 26.6104 8.19969 39.1837C8.19969 51.7526 18.2429 61.8006 30.8166 61.8006C43.386 61.8006 53.4335 51.757 53.4335 39.1837C53.4335 33.8033 51.5952 28.7272 48.2206 24.6813L51.1323 21.7696C60.1462 32.2704 59.6809 48.1592 49.7367 58.1037ZM30.885 32.9652C27.4819 32.9652 24.735 35.7117 24.735 39.1153C24.735 42.5185 27.4815 45.2653 30.885 45.2653C34.2882 45.2653 37.0351 42.5189 37.0351 39.1153C37.0351 38.1818 36.8287 37.2806 36.4383 36.4634L39.4389 33.4628C40.541 35.1338 41.1334 37.1065 41.1334 39.1838C41.1334 48.6294 29.7624 52.7671 23.4977 46.5028C17.2479 40.253 21.3449 28.867 30.8166 28.867C32.8946 28.867 34.868 29.4597 36.5391 30.5624L33.5387 33.5628C32.721 33.1719 31.8192 32.9652 30.885 32.9652ZM32.9337 39.1155C32.9337 40.2517 32.0215 41.1639 30.8851 41.1639C30.3359 41.1639 29.8209 40.9515 29.4351 40.5655C29.0491 40.1797 28.8367 39.6647 28.8367 39.1155C28.8367 37.9793 29.7487 37.0669 30.8851 37.0669C32.0212 37.0669 32.9337 37.9789 32.9337 39.1155ZM39.4825 27.6191C37.0089 25.7675 33.9979 24.7655 30.8166 24.7655C22.7871 24.7655 16.3984 31.1501 16.3984 39.1837C16.3984 47.2132 22.7832 53.6019 30.8166 53.6019C38.8461 53.6019 45.2348 47.2173 45.2348 39.1837C45.2348 36.0031 44.2332 32.9927 42.3825 30.5193L45.3056 27.5961C47.9144 30.8577 49.332 34.9014 49.332 39.1835C49.332 49.4856 41.1233 57.6989 30.8166 57.6989C20.5141 57.6989 12.3012 49.4898 12.3012 39.1835C12.3012 28.8791 20.5126 20.6682 30.8166 20.6682C35.0995 20.6682 39.1437 22.0862 42.4056 24.6956L39.4825 27.6191ZM55.0975 14.9029V11.9174L59.746 7.11718V7.93025C59.746 9.06282 60.6642 9.98102 61.7968 9.98102H62.9939L58.066 14.9029H55.0975Z" fill="#FA4B41"/>
</g>
<defs>
<clipPath id="clip0">
<rect width="70" height="70" fill="white"/>
</clipPath>
</defs>
</svg>
