<svg width="70" height="70" viewBox="0 0 70 70" fill="none" xmlns="http://www.w3.org/2000/svg">
<path fill-rule="evenodd" clip-rule="evenodd" d="M35 66C52.1208 66 66 52.1208 66 35C66 17.8792 52.1208 4 35 4C17.8792 4 4 17.8792 4 35C4 52.1208 17.8792 66 35 66ZM35 70C54.33 70 70 54.33 70 35C70 15.67 54.33 0 35 0C15.67 0 0 15.67 0 35C0 54.33 15.67 70 35 70ZM45.9865 24.7825C46.8245 25.5022 46.9205 26.7648 46.2009 27.6028L35.3465 40.2426L36.6267 41.7143L50.9827 24.9969C51.7023 24.1589 52.965 24.0629 53.8029 24.7825C54.6409 25.5022 54.7369 26.7648 54.0173 27.6028L38.1538 46.0757C37.7753 46.5165 37.2239 46.7709 36.6429 46.7728C36.0619 46.7746 35.5089 46.5238 35.1276 46.0854L32.7128 43.3096L30.3374 46.0757C29.9589 46.5165 29.4075 46.7709 28.8265 46.7728C28.2455 46.7746 27.6925 46.5238 27.3111 46.0854L17.5728 34.8907C16.8478 34.0574 16.9357 32.7941 17.7691 32.0691C18.6025 31.3442 19.8657 31.432 20.5907 32.2654L28.8103 41.7143L30.0596 40.2595L25.3892 34.8907C24.6642 34.0574 24.7521 32.7941 25.5855 32.0691C26.4189 31.3442 27.6821 31.432 28.4071 32.2654L32.6933 37.1926L43.1662 24.9969C43.8859 24.1589 45.1486 24.0629 45.9865 24.7825Z" fill="#5EB634"/>
</svg>
