<svg width="23" height="23" viewBox="0 0 23 23" fill="none" xmlns="http://www.w3.org/2000/svg">
<g clip-path="url(#clip0)">
<path fill-rule="evenodd" clip-rule="evenodd" d="M5.86931 3.53353C5.86931 1.58202 7.51094 0 9.53598 0H14.3823C16.4074 0 18.049 1.58202 18.049 3.53353V5.39945C18.049 5.40712 18.0489 5.41476 18.0486 5.42238L22.2631 5.4032C22.6681 5.40135 22.998 5.71626 23 6.10656C23.002 6.49685 22.6753 6.81475 22.2703 6.81659L21.0626 6.82209L19.4583 19.8818C19.2399 21.6603 17.6754 23 15.8171 23H8.1832C6.32489 23 4.76041 21.6603 4.54196 19.8818L2.94785 6.90453L1.73696 6.91004C1.33195 6.91188 1.00201 6.59698 1.00001 6.20668C0.998009 5.81638 1.32471 5.49849 1.72971 5.49664L5.87377 5.47778C5.87082 5.45206 5.86931 5.42593 5.86931 5.39945V3.53353ZM16.5823 5.39945C16.5823 5.40936 16.5825 5.41923 16.583 5.42905L7.33225 5.47115C7.33472 5.44757 7.33598 5.42365 7.33598 5.39945V3.53353C7.33598 2.36262 8.32095 1.41341 9.53598 1.41341H14.3823C15.5974 1.41341 16.5823 2.36262 16.5823 3.53353V5.39945ZM19.5848 6.82881L4.42393 6.89781L5.99845 19.7157C6.12953 20.7827 7.06821 21.5866 8.1832 21.5866H15.8171C16.9321 21.5866 17.8708 20.7827 18.0018 19.7157L19.5848 6.82881ZM12.7333 9.15367C12.7333 8.76336 12.405 8.44696 12 8.44696C11.595 8.44696 11.2667 8.76336 11.2667 9.15367V18.5778C11.2667 18.9681 11.595 19.2845 12 19.2845C12.405 19.2845 12.7333 18.9681 12.7333 18.5778V9.15367ZM9.1273 8.4469C9.53231 8.4469 9.86063 8.7633 9.86063 9.15361V16.0493C9.86063 16.4396 9.53231 16.756 9.1273 16.756C8.72229 16.756 8.39397 16.4396 8.39397 16.0493L8.39397 9.15361C8.39397 8.7633 8.72229 8.4469 9.1273 8.4469ZM15.6065 9.15361C15.6065 8.7633 15.2782 8.4469 14.8732 8.4469C14.4682 8.4469 14.1398 8.7633 14.1398 9.15361V16.0493C14.1398 16.4396 14.4682 16.756 14.8732 16.756C15.2782 16.756 15.6065 16.4396 15.6065 16.0493V9.15361Z" fill="#333333"/>
</g>
<defs>
<clipPath id="clip0">
<rect width="23" height="23" fill="white"/>
</clipPath>
</defs>
</svg>
