<svg width="88" height="88" viewBox="0 0 88 88" fill="none" xmlns="http://www.w3.org/2000/svg">
<path d="M78.8332 38.5H53.1664C52.1544 38.5 51.333 39.3214 51.333 40.3334C51.333 41.3454 52.1544 42.1668 53.1664 42.1668H78.833C79.845 42.1668 80.6664 41.3454 80.6664 40.3334C80.6664 39.3214 79.8452 38.5 78.8332 38.5Z" fill="#FA4B41"/>
<path d="M78.8334 20.1666H55V11C55 9.98802 54.1786 9.16663 53.1666 9.16663H38.5C37.488 9.16663 36.6666 9.98802 36.6666 11V20.1666H9.16661C4.11039 20.1666 0 24.2806 0 29.3334V69.6668C0 74.7194 4.11039 78.8334 9.16661 78.8334H78.8332C83.8896 78.8334 87.9998 74.7194 87.9998 69.6668V29.3334C88 24.2806 83.8896 20.1666 78.8334 20.1666ZM40.3334 12.8334H51.3334V23.8334H40.3334V12.8334ZM84.3334 69.6666C84.3334 72.699 81.8658 75.1666 78.8334 75.1666H9.16661C6.13422 75.1666 3.66661 72.699 3.66661 69.6666V29.3334C3.66661 26.301 6.13422 23.8334 9.16661 23.8334H36.6666V25.6668C36.6666 26.6788 37.488 27.5002 38.5 27.5002H53.1666C54.1786 27.5002 55 26.6788 55 25.6668V23.8334H78.8334C81.8658 23.8334 84.3334 26.301 84.3334 29.3334V69.6666Z" fill="#FA4B41"/>
<path d="M27.4996 31.1666C16.3822 31.1666 7.33301 40.2122 7.33301 51.3332C7.33301 56.8846 9.58801 61.9188 13.2326 65.5708C13.2436 65.5818 13.2436 65.5965 13.251 65.6039C13.2986 65.6515 13.3574 65.6845 13.4086 65.7322C14.274 66.5792 15.2052 67.3528 16.21 68.0312C16.342 68.1228 16.485 68.1962 16.6206 68.2842C17.5886 68.9076 18.6006 69.4612 19.6712 69.9158C19.8068 69.9745 19.9462 70.0112 20.0818 70.0662C21.1708 70.4988 22.3038 70.8546 23.4772 71.0928C23.5542 71.1075 23.6312 71.1148 23.7046 71.1259C24.933 71.3644 26.2016 71.5 27.4996 71.5C28.7976 71.5 30.0662 71.3644 31.2946 71.1296C31.3716 71.115 31.4486 71.1112 31.522 71.0966C32.6954 70.8582 33.8246 70.5026 34.9174 70.07C35.053 70.015 35.1924 69.9746 35.328 69.9196C36.3986 69.4686 37.4106 68.9112 38.3786 68.288C38.5142 68.2 38.6536 68.1266 38.7892 68.035C39.7938 67.353 40.7288 66.5794 41.5942 65.7324C41.6418 65.6848 41.7006 65.6518 41.7482 65.604C41.7592 65.593 41.7592 65.582 41.7666 65.571C45.4112 61.9226 47.6662 56.8846 47.6662 51.3334C47.6662 40.2124 38.617 31.1666 27.4996 31.1666ZM37.4032 64.4454C37.0218 64.7314 36.6442 65.0248 36.2408 65.2704C35.9072 65.4794 35.5442 65.6518 35.1958 65.8388C30.4328 68.2772 24.5442 68.2734 19.7848 65.8278C19.4474 65.6482 19.0992 65.4832 18.7764 65.2778C18.3584 65.0212 17.9698 64.7204 17.5738 64.4234C17.2914 64.207 17.0238 63.9798 16.7524 63.745C18.6848 59.5686 22.8611 56.8334 27.4994 56.8334C32.1378 56.8334 36.3104 59.5688 38.2501 63.7488C37.9716 63.987 37.6966 64.2254 37.4032 64.4454ZM21.9996 47.6666C21.9996 44.6342 24.4672 42.1666 27.4996 42.1666C30.532 42.1666 32.9996 44.6342 32.9996 47.6666C32.9996 50.699 30.532 53.1666 27.4996 53.1666C24.4672 53.1666 21.9996 50.699 21.9996 47.6666ZM40.8756 60.918C39.1742 58.025 36.6112 55.7774 33.5826 54.472C35.46 52.7926 36.6662 50.3764 36.6662 47.6666C36.6662 42.614 32.556 38.5 27.4996 38.5C22.4432 38.5 18.333 42.614 18.333 47.6666C18.333 50.3762 19.5394 52.789 21.413 54.472C18.3844 55.7774 15.8214 58.025 14.1236 60.918C12.1766 58.2084 10.9996 54.9156 10.9996 51.3334C10.9996 42.2364 18.4026 34.8334 27.4996 34.8334C36.5966 34.8334 43.9996 42.2364 43.9996 51.3334C43.9996 54.9156 42.8226 58.2084 40.8756 60.918Z" fill="#FA4B41"/>
<path d="M78.8332 60.5H53.1664C52.1544 60.5 51.333 61.3214 51.333 62.3334C51.333 63.3454 52.1544 64.1668 53.1664 64.1668H78.833C79.845 64.1668 80.6664 63.3454 80.6664 62.3334C80.6664 61.3214 79.8452 60.5 78.8332 60.5Z" fill="#FA4B41"/>
<path d="M78.8332 49.5H53.1664C52.1544 49.5 51.333 50.3214 51.333 51.3334C51.333 52.3454 52.1544 53.1668 53.1664 53.1668H78.833C79.845 53.1668 80.6664 52.3454 80.6664 51.3334C80.6664 50.3214 79.8452 49.5 78.8332 49.5Z" fill="#FA4B41"/>
</svg>
